<svg width="66" height="45" viewBox="0 0 66 45" fill="none" xmlns="http://www.w3.org/2000/svg">
<path d="M39.8013 10.707H26.1602V34.293H39.8013V10.707Z" fill="#FF5F00"/>
<path d="M27.0273 22.5C27.0252 20.2285 27.5601 17.9863 28.5918 15.9431C29.6234 13.9 31.1246 12.1094 32.9817 10.707C30.6819 8.96769 27.9199 7.88603 25.0114 7.58567C22.1028 7.28531 19.1651 7.77834 16.5341 9.00845C13.903 10.2386 11.6847 12.1561 10.1328 14.5419C8.58082 16.9277 7.75781 19.6854 7.75781 22.5C7.75781 25.3145 8.58082 28.0723 10.1328 30.4581C11.6847 32.8439 13.903 34.7614 16.5341 35.9915C19.1651 37.2216 22.1028 37.7146 25.0114 37.4143C27.9199 37.1139 30.6819 36.0323 32.9817 34.2929C31.1246 32.8905 29.6234 31.1 28.5918 29.0568C27.5602 27.0137 27.0252 24.7715 27.0273 22.5Z" fill="#EB001B"/>
<path d="M58.2056 22.5C58.2057 25.3145 57.3828 28.0722 55.8309 30.458C54.279 32.8438 52.0608 34.7613 49.4298 35.9915C46.7988 37.2216 43.8611 37.7146 40.9526 37.4143C38.0442 37.1139 35.2822 36.0323 32.9824 34.2929C34.8379 32.8891 36.338 31.0983 37.3694 29.0554C38.4009 27.0126 38.9368 24.7711 38.9368 22.5C38.9368 20.2288 38.4009 17.9873 37.3694 15.9445C36.338 13.9017 34.8379 12.1108 32.9824 10.707C35.2822 8.96768 38.0442 7.88602 40.9526 7.58567C43.8611 7.28531 46.7988 7.77836 49.4298 9.00848C52.0608 10.2386 54.279 12.1561 55.8309 14.5419C57.3828 16.9277 58.2057 19.6855 58.2056 22.5Z" fill="#F79E1B"/>
<path d="M56.7173 31.7949V31.312H56.9197V31.2136H56.4043V31.312H56.6067V31.7949H56.7173ZM57.7179 31.7949V31.2126H57.5599L57.3782 31.6131L57.1964 31.2126H57.0384V31.7949H57.1499V31.3557L57.3203 31.7343H57.436L57.6064 31.3547V31.7949H57.7179Z" fill="#F79E1B"/>
</svg>
