<svg width="143" height="24" viewBox="0 0 143 24" fill="none" xmlns="http://www.w3.org/2000/svg">
<path d="M11.5528 2.79863C11.8594 1.89275 13.1406 1.89275 13.4472 2.79862L15.0765 7.61239C15.2139 8.01849 15.595 8.2918 16.0237 8.2918H21.2065C22.185 8.2918 22.5812 9.55218 21.7785 10.112L17.6568 12.9869C17.2919 13.2413 17.139 13.7063 17.2816 14.1276L18.8724 18.8277C19.1818 19.7419 18.1447 20.5207 17.3531 19.9685L13.0721 16.9826C12.7284 16.7429 12.2716 16.7429 11.9279 16.9826L7.64689 19.9685C6.8553 20.5207 5.81819 19.7419 6.1276 18.8277L7.71838 14.1276C7.861 13.7063 7.70812 13.2413 7.34324 12.9869L3.22147 10.112C2.41884 9.55218 2.81497 8.2918 3.79355 8.2918H8.97631C9.40505 8.2918 9.78608 8.01849 9.92353 7.61239L11.5528 2.79863Z" fill="#FDE201"/>
<path d="M41.0567 2.67977C41.3702 1.78914 42.6298 1.78914 42.9433 2.67977L44.6836 7.62382C44.8244 8.02404 45.2025 8.2918 45.6268 8.2918H51.0773C52.0653 8.2918 52.4548 9.57202 51.6343 10.1223L47.3661 12.9848C46.9873 13.2389 46.8284 13.7171 46.9798 14.1473L48.6419 18.8693C48.9613 19.7767 47.9406 20.5677 47.1417 20.0319L42.557 16.9571C42.22 16.7312 41.78 16.7312 41.443 16.9571L36.8583 20.0319C36.0594 20.5677 35.0387 19.7767 35.3581 18.8693L37.0202 14.1473C37.1716 13.7171 37.0127 13.2389 36.6339 12.9848L32.3657 10.1223C31.5452 9.57201 31.9347 8.2918 32.9227 8.2918H38.3732C38.7975 8.2918 39.1756 8.02404 39.3164 7.62382L41.0567 2.67977Z" fill="#FDE201"/>
<path d="M70.5528 2.79863C70.8594 1.89275 72.1406 1.89275 72.4472 2.79862L74.0765 7.61239C74.2139 8.01849 74.595 8.2918 75.0237 8.2918H80.2065C81.185 8.2918 81.5812 9.55218 80.7785 10.112L76.6568 12.9869C76.2919 13.2413 76.139 13.7063 76.2816 14.1276L77.8724 18.8277C78.1818 19.7419 77.1447 20.5207 76.3531 19.9685L72.0721 16.9826C71.7284 16.7429 71.2716 16.7429 70.9279 16.9826L66.6469 19.9685C65.8553 20.5207 64.8182 19.7419 65.1276 18.8277L66.7184 14.1276C66.861 13.7063 66.7081 13.2413 66.3432 12.9869L62.2215 10.112C61.4188 9.55218 61.815 8.2918 62.7935 8.2918H67.9763C68.405 8.2918 68.7861 8.01849 68.9235 7.61239L70.5528 2.79863Z" fill="#FDE201"/>
<path d="M100.057 2.67977C100.37 1.78914 101.63 1.78914 101.943 2.67977L103.684 7.62382C103.824 8.02404 104.203 8.2918 104.627 8.2918H110.077C111.065 8.2918 111.455 9.57202 110.634 10.1223L106.366 12.9848C105.987 13.2389 105.828 13.7171 105.98 14.1473L107.642 18.8693C107.961 19.7767 106.941 20.5677 106.142 20.0319L101.557 16.9571C101.22 16.7312 100.78 16.7312 100.443 16.9571L95.8583 20.0319C95.0594 20.5677 94.0387 19.7767 94.3581 18.8693L96.0202 14.1473C96.1716 13.7171 96.0127 13.2389 95.6339 12.9848L91.3657 10.1223C90.5452 9.57201 90.9347 8.2918 91.9227 8.2918H97.3732C97.7975 8.2918 98.1756 8.02404 98.3164 7.62382L100.057 2.67977Z" fill="#FDE201"/>
<path d="M130.026 2.95892C130.18 2.50598 130.82 2.50598 130.974 2.95892L132.603 7.77269C132.809 8.38184 133.381 8.7918 134.024 8.7918H139.206C139.696 8.7918 139.894 9.42198 139.492 9.7019L135.371 12.5768C134.823 12.9585 134.594 13.6559 134.808 14.2879L136.399 18.988C136.554 19.4451 136.035 19.8345 135.639 19.5584L131.358 16.5725C130.843 16.2129 130.157 16.2129 129.642 16.5725L125.361 19.5584C124.965 19.8345 124.446 19.4451 124.601 18.988L126.192 14.2879C126.406 13.6559 126.177 12.9585 125.629 12.5768L121.508 9.70189C121.106 9.42199 121.304 8.7918 121.794 8.7918H126.976C127.619 8.7918 128.191 8.38184 128.397 7.77269L130.026 2.95892Z" fill="white" stroke="#C3C3C3"/>
</svg>
