<svg width="2821" height="621" viewBox="0 0 2821 621" fill="none" xmlns="http://www.w3.org/2000/svg">
<mask id="mask0_12_3136" style="mask-type:luminance" maskUnits="userSpaceOnUse" x="0" y="0" width="296" height="619">
<path d="M33.2918 342.75H260.643V325.962C257.324 326.847 254.099 327.733 250.811 328.555C247.586 329.44 244.266 330.23 240.978 330.957C234.37 332.507 227.731 333.708 221.06 334.688C217.266 335.162 213.472 335.573 209.678 335.795C201.395 336.459 193.08 336.364 184.923 335.479C183.405 335.321 181.793 335.162 180.243 334.909C174.047 334.024 167.913 332.57 161.969 330.546C150.177 326.594 139.395 320.398 128.741 313.79C124.567 311.134 120.363 308.478 116.094 305.823C113.976 304.432 111.889 303.135 109.708 301.871C108.032 300.796 106.262 299.847 104.555 298.804C89.5685 290.299 73.1913 283.343 56.1818 283.343C55.4231 283.343 54.6642 283.375 53.9371 283.407C46.8235 283.628 39.9944 285.24 33.355 287.928H33.2918V342.75ZM295.958 470.195V355.713H0V470.195C0 551.891 66.299 618.158 147.963 618.158C229.723 618.158 295.958 551.891 295.958 470.195ZM0 148.027V355.713H295.958V148.027C295.958 107.147 279.423 70.1562 252.644 43.3773C225.897 16.5352 188.875 0 148.027 0C66.2674 0 0 66.2989 0 148.027ZM33.355 287.928C39.9944 285.24 46.8235 283.628 53.9371 283.407C71.7369 282.743 88.9045 289.92 104.555 298.804C122.765 290.647 151.062 285.399 182.741 285.399C214.294 285.399 242.432 290.584 260.643 298.709V342.75H33.355V287.928ZM209.678 335.795C201.395 336.459 193.08 336.364 184.923 335.479C193.174 336.459 201.395 336.459 209.678 335.795Z" fill="white"/>
</mask>
<g mask="url(#mask0_12_3136)">
<path fill-rule="evenodd" clip-rule="evenodd" d="M127.034 703.965L125.105 701.625L526.693 366.21L528.621 368.518L127.034 703.965Z" fill="#04B64D"/>
<path fill-rule="evenodd" clip-rule="evenodd" d="M125.8 702.51L123.65 699.918L525.269 364.471L527.419 367.063L125.8 702.51Z" fill="#04B64D"/>
<path fill-rule="evenodd" clip-rule="evenodd" d="M124.377 700.771L122.228 698.21L523.815 362.763L525.965 365.324L124.377 700.771Z" fill="#05B64D"/>
<path fill-rule="evenodd" clip-rule="evenodd" d="M122.955 699.064L120.805 696.503L522.393 361.056L524.542 363.617L122.955 699.064Z" fill="#05B64C"/>
<path fill-rule="evenodd" clip-rule="evenodd" d="M121.501 697.356L119.351 694.764L520.97 359.348L523.12 361.909L121.501 697.356Z" fill="#06B64C"/>
<path fill-rule="evenodd" clip-rule="evenodd" d="M120.078 695.649L117.928 693.056L519.516 357.609L521.666 360.202L120.078 695.649Z" fill="#06B64C"/>
<path fill-rule="evenodd" clip-rule="evenodd" d="M118.655 693.91L116.505 691.349L518.093 355.902L520.243 358.495L118.655 693.91Z" fill="#07B64C"/>
<path fill-rule="evenodd" clip-rule="evenodd" d="M117.201 692.203L115.051 689.642L516.67 354.195L518.82 356.756L117.201 692.203Z" fill="#08B64C"/>
<path fill-rule="evenodd" clip-rule="evenodd" d="M115.778 690.496L113.628 687.903L515.247 352.488L517.366 355.049L115.778 690.496Z" fill="#08B64B"/>
<path fill-rule="evenodd" clip-rule="evenodd" d="M114.355 688.789L112.206 686.196L513.793 350.749L515.943 353.342L114.355 688.789Z" fill="#09B74B"/>
<path fill-rule="evenodd" clip-rule="evenodd" d="M112.901 687.049L110.751 684.488L512.37 349.042L514.52 351.602L112.901 687.049Z" fill="#0AB74B"/>
<path fill-rule="evenodd" clip-rule="evenodd" d="M111.479 685.342L109.329 682.781L510.948 347.334L513.098 349.895L111.479 685.342Z" fill="#0AB74B"/>
<path fill-rule="evenodd" clip-rule="evenodd" d="M110.055 683.635L107.905 681.042L509.493 345.627L511.643 348.188L110.055 683.635Z" fill="#0BB74B"/>
<path fill-rule="evenodd" clip-rule="evenodd" d="M108.601 681.928L106.451 679.335L508.071 343.888L510.221 346.481L108.601 681.928Z" fill="#0CB74A"/>
<path fill-rule="evenodd" clip-rule="evenodd" d="M107.178 680.189L105.028 677.628L506.648 342.181L508.798 344.742L107.178 680.189Z" fill="#0DB74A"/>
<path fill-rule="evenodd" clip-rule="evenodd" d="M105.756 678.482L103.606 675.921L505.194 340.474L507.344 343.035L105.756 678.482Z" fill="#0EB74A"/>
<path fill-rule="evenodd" clip-rule="evenodd" d="M104.333 676.774L102.152 674.182L503.771 338.766L505.921 341.327L104.333 676.774Z" fill="#0EB84A"/>
<path fill-rule="evenodd" clip-rule="evenodd" d="M102.878 675.067L100.729 672.475L502.348 337.028L504.498 339.621L102.878 675.067Z" fill="#0FB849"/>
<path fill-rule="evenodd" clip-rule="evenodd" d="M101.456 673.328L99.3057 670.768L500.893 335.321L503.043 337.881L101.456 673.328Z" fill="#10B849"/>
<path fill-rule="evenodd" clip-rule="evenodd" d="M100.033 671.621L97.8833 669.06L499.471 333.613L501.621 336.174L100.033 671.621Z" fill="#11B849"/>
<path fill-rule="evenodd" clip-rule="evenodd" d="M98.5791 669.914L96.4292 667.321L498.049 331.906L500.199 334.467L98.5791 669.914Z" fill="#12B849"/>
<path fill-rule="evenodd" clip-rule="evenodd" d="M97.1562 668.206L95.0063 665.614L496.594 330.167L498.744 332.759L97.1562 668.206Z" fill="#13B848"/>
<path fill-rule="evenodd" clip-rule="evenodd" d="M95.7339 666.467L93.584 663.906L495.172 328.459L497.322 331.02L95.7339 666.467Z" fill="#14B948"/>
<path fill-rule="evenodd" clip-rule="evenodd" d="M94.2788 664.761L92.1289 662.2L493.748 326.753L495.898 329.314L94.2788 664.761Z" fill="#15B948"/>
<path fill-rule="evenodd" clip-rule="evenodd" d="M92.8559 663.053L90.7061 660.461L492.326 325.045L494.444 327.606L92.8559 663.053Z" fill="#16B947"/>
<path fill-rule="evenodd" clip-rule="evenodd" d="M91.4336 661.346L89.2837 658.753L490.872 323.306L493.021 325.899L91.4336 661.346Z" fill="#17B947"/>
<path fill-rule="evenodd" clip-rule="evenodd" d="M89.9795 659.607L87.8296 657.046L489.449 321.599L491.599 324.192L89.9795 659.607Z" fill="#18B947"/>
<path fill-rule="evenodd" clip-rule="evenodd" d="M88.5567 657.9L86.4067 655.339L488.026 319.892L490.176 322.452L88.5567 657.9Z" fill="#19B946"/>
<path fill-rule="evenodd" clip-rule="evenodd" d="M87.1333 656.192L84.9834 653.599L486.571 318.184L488.721 320.745L87.1333 656.192Z" fill="#1ABA46"/>
<path fill-rule="evenodd" clip-rule="evenodd" d="M85.6792 654.484L83.5293 651.892L485.149 316.445L487.299 319.038L85.6792 654.484Z" fill="#1BBA46"/>
<path fill-rule="evenodd" clip-rule="evenodd" d="M84.2569 652.746L82.1069 650.185L483.726 314.738L485.876 317.299L84.2569 652.746Z" fill="#1CBA45"/>
<path fill-rule="evenodd" clip-rule="evenodd" d="M82.834 651.039L80.6841 648.478L482.272 313.031L484.422 315.592L82.834 651.039Z" fill="#1DBA45"/>
<path fill-rule="evenodd" clip-rule="evenodd" d="M81.4115 649.331L79.23 646.739L480.849 311.324L482.999 313.885L81.4115 649.331Z" fill="#1EBA45"/>
<path fill-rule="evenodd" clip-rule="evenodd" d="M79.9566 647.624L77.8066 645.032L479.426 309.585L481.576 312.177L79.9566 647.624Z" fill="#20BB44"/>
<path fill-rule="evenodd" clip-rule="evenodd" d="M78.5341 645.885L76.3843 643.324L477.972 307.877L480.122 310.47L78.5341 645.885Z" fill="#21BB44"/>
<path fill-rule="evenodd" clip-rule="evenodd" d="M77.1113 644.178L74.9614 641.617L476.549 306.17L478.699 308.731L77.1113 644.178Z" fill="#22BB44"/>
<path fill-rule="evenodd" clip-rule="evenodd" d="M75.6572 642.47L73.5073 639.878L475.127 304.462L477.277 307.023L75.6572 642.47Z" fill="#23BB43"/>
<path fill-rule="evenodd" clip-rule="evenodd" d="M74.2348 640.764L72.085 638.171L473.673 302.724L475.823 305.317L74.2348 640.764Z" fill="#24BB43"/>
<path fill-rule="evenodd" clip-rule="evenodd" d="M72.812 639.025L70.6621 636.464L472.25 301.017L474.4 303.609L72.812 639.025Z" fill="#26BC43"/>
<path fill-rule="evenodd" clip-rule="evenodd" d="M71.357 637.317L69.207 634.756L470.827 299.31L472.976 301.87L71.357 637.317Z" fill="#27BC42"/>
<path fill-rule="evenodd" clip-rule="evenodd" d="M69.9345 635.61L67.7847 633.049L469.404 297.602L471.554 300.163L69.9345 635.61Z" fill="#28BC42"/>
<path fill-rule="evenodd" clip-rule="evenodd" d="M68.5122 633.903L66.3623 631.311L467.95 295.864L470.1 298.456L68.5122 633.903Z" fill="#29BC41"/>
<path fill-rule="evenodd" clip-rule="evenodd" d="M67.0576 632.164L64.9077 629.603L466.527 294.156L468.677 296.717L67.0576 632.164Z" fill="#2ABD41"/>
<path fill-rule="evenodd" clip-rule="evenodd" d="M65.6353 630.457L63.4854 627.896L465.105 292.449L467.255 295.01L65.6353 630.457Z" fill="#2CBD41"/>
<path fill-rule="evenodd" clip-rule="evenodd" d="M64.2119 628.749L62.062 626.157L463.65 290.742L465.8 293.303L64.2119 628.749Z" fill="#2DBD40"/>
<path fill-rule="evenodd" clip-rule="evenodd" d="M62.7574 627.042L60.6392 624.45L462.227 289.003L464.377 291.595L62.7574 627.042Z" fill="#2EBD40"/>
<path fill-rule="evenodd" clip-rule="evenodd" d="M61.335 625.303L59.1851 622.742L460.805 287.295L462.954 289.888L61.335 625.303Z" fill="#30BD3F"/>
<path fill-rule="evenodd" clip-rule="evenodd" d="M59.9126 623.596L57.7627 621.035L459.351 285.589L461.5 288.15L59.9126 623.596Z" fill="#31BE3F"/>
<path fill-rule="evenodd" clip-rule="evenodd" d="M58.4581 621.889L56.3398 619.328L457.928 283.881L460.078 286.442L58.4581 621.889Z" fill="#32BE3F"/>
<path fill-rule="evenodd" clip-rule="evenodd" d="M57.0347 620.182L54.8848 617.589L456.504 282.142L458.654 284.735L57.0347 620.182Z" fill="#34BE3E"/>
<path fill-rule="evenodd" clip-rule="evenodd" d="M55.6123 618.443L53.4624 615.882L455.05 280.435L457.2 282.996L55.6123 618.443Z" fill="#35BE3E"/>
<path fill-rule="evenodd" clip-rule="evenodd" d="M54.1899 616.735L52.04 614.174L453.628 278.727L455.778 281.288L54.1899 616.735Z" fill="#36BF3D"/>
<path fill-rule="evenodd" clip-rule="evenodd" d="M52.7354 615.028L50.5854 612.435L452.205 277.02L454.355 279.581L52.7354 615.028Z" fill="#38BF3D"/>
<path fill-rule="evenodd" clip-rule="evenodd" d="M51.313 613.32L49.1631 610.728L450.751 275.281L452.901 277.874L51.313 613.32Z" fill="#39BF3D"/>
<path fill-rule="evenodd" clip-rule="evenodd" d="M49.8906 611.582L47.7407 609.021L449.329 273.574L451.478 276.167L49.8906 611.582Z" fill="#3BBF3C"/>
<path fill-rule="evenodd" clip-rule="evenodd" d="M48.4356 609.875L46.2856 607.314L447.905 271.867L450.055 274.428L48.4356 609.875Z" fill="#3CC03C"/>
<path fill-rule="evenodd" clip-rule="evenodd" d="M47.0127 608.167L44.8628 605.575L446.451 270.159L448.632 272.72L47.0127 608.167Z" fill="#3DC03B"/>
<path fill-rule="evenodd" clip-rule="evenodd" d="M45.5903 606.46L43.4404 603.867L445.028 268.42L447.178 271.013L45.5903 606.46Z" fill="#3FC03B"/>
<path fill-rule="evenodd" clip-rule="evenodd" d="M44.1362 604.721L41.9863 602.16L443.606 266.713L445.756 269.305L44.1362 604.721Z" fill="#40C03A"/>
<path fill-rule="evenodd" clip-rule="evenodd" d="M42.7134 603.014L40.5635 600.453L442.183 265.006L444.333 267.567L42.7134 603.014Z" fill="#42C13A"/>
<path fill-rule="evenodd" clip-rule="evenodd" d="M41.29 601.307L39.1401 598.746L440.728 263.299L442.878 265.86L41.29 601.307Z" fill="#43C13A"/>
<path fill-rule="evenodd" clip-rule="evenodd" d="M39.836 599.599L37.7178 597.007L439.306 261.56L441.456 264.152L39.836 599.599Z" fill="#44C139"/>
<path fill-rule="evenodd" clip-rule="evenodd" d="M38.4136 597.86L36.2637 595.3L437.883 259.853L440.033 262.445L38.4136 597.86Z" fill="#46C139"/>
<path fill-rule="evenodd" clip-rule="evenodd" d="M36.9907 596.153L34.8408 593.592L436.429 258.145L438.579 260.706L36.9907 596.153Z" fill="#47C238"/>
<path fill-rule="evenodd" clip-rule="evenodd" d="M35.5367 594.445L33.4185 591.853L435.006 256.438L437.156 258.999L35.5367 594.445Z" fill="#49C238"/>
<path fill-rule="evenodd" clip-rule="evenodd" d="M34.1133 592.739L31.9634 590.147L433.583 254.7L435.733 257.292L34.1133 592.739Z" fill="#4AC237"/>
<path fill-rule="evenodd" clip-rule="evenodd" d="M32.6904 591L30.5405 588.439L432.128 252.992L434.278 255.585L32.6904 591Z" fill="#4CC237"/>
<path fill-rule="evenodd" clip-rule="evenodd" d="M31.268 589.292L29.1182 586.732L430.706 251.285L432.856 253.846L31.268 589.292Z" fill="#4DC337"/>
<path fill-rule="evenodd" clip-rule="evenodd" d="M29.814 587.585L27.6641 585.024L429.284 249.577L431.433 252.138L29.814 587.585Z" fill="#4FC336"/>
<path fill-rule="evenodd" clip-rule="evenodd" d="M28.3911 585.878L26.2412 583.285L427.829 247.838L429.979 250.431L28.3911 585.878Z" fill="#50C336"/>
<path fill-rule="evenodd" clip-rule="evenodd" d="M26.9687 584.14L24.8188 581.579L426.407 246.132L428.557 248.693L26.9687 584.14Z" fill="#52C435"/>
<path fill-rule="evenodd" clip-rule="evenodd" d="M25.5137 582.432L23.3638 579.871L424.983 244.424L427.133 246.985L25.5137 582.432Z" fill="#53C435"/>
<path fill-rule="evenodd" clip-rule="evenodd" d="M24.0913 580.725L21.9414 578.132L423.529 242.717L425.711 245.278L24.0913 580.725Z" fill="#55C434"/>
<path fill-rule="evenodd" clip-rule="evenodd" d="M22.6684 579.017L20.5186 576.425L422.106 240.978L424.256 243.571L22.6684 579.017Z" fill="#56C434"/>
<path fill-rule="evenodd" clip-rule="evenodd" d="M21.2144 577.278L19.0645 574.718L420.684 239.271L422.834 241.863L21.2144 577.278Z" fill="#58C533"/>
<path fill-rule="evenodd" clip-rule="evenodd" d="M19.792 575.571L17.6421 573.01L419.262 237.563L421.411 240.124L19.792 575.571Z" fill="#59C533"/>
<path fill-rule="evenodd" clip-rule="evenodd" d="M18.3686 573.864L16.2188 571.303L417.807 235.856L419.957 238.417L18.3686 573.864Z" fill="#5BC532"/>
<path fill-rule="evenodd" clip-rule="evenodd" d="M16.9457 572.156L14.7642 569.564L416.384 234.117L418.534 236.709L16.9457 572.156Z" fill="#5CC532"/>
<path fill-rule="evenodd" clip-rule="evenodd" d="M15.4917 570.418L13.3418 567.857L414.961 232.41L417.111 235.003L15.4917 570.418Z" fill="#5EC632"/>
<path fill-rule="evenodd" clip-rule="evenodd" d="M14.0688 568.71L11.9189 566.15L413.507 230.703L415.657 233.264L14.0688 568.71Z" fill="#5FC631"/>
<path fill-rule="evenodd" clip-rule="evenodd" d="M12.6465 567.003L10.4966 564.442L412.084 228.995L414.234 231.556L12.6465 567.003Z" fill="#61C631"/>
<path fill-rule="evenodd" clip-rule="evenodd" d="M11.1914 565.296L9.0415 562.703L410.661 227.256L412.811 229.849L11.1914 565.296Z" fill="#62C630"/>
<path fill-rule="evenodd" clip-rule="evenodd" d="M9.76901 563.557L7.61914 560.996L409.207 225.549L411.357 228.141L9.76901 563.557Z" fill="#64C730"/>
<path fill-rule="evenodd" clip-rule="evenodd" d="M8.34616 561.849L6.19629 559.289L407.784 223.842L409.934 226.403L8.34616 561.849Z" fill="#65C72F"/>
<path fill-rule="evenodd" clip-rule="evenodd" d="M6.89211 560.143L4.74219 557.55L406.362 222.135L408.512 224.696L6.89211 560.143Z" fill="#67C72F"/>
<path fill-rule="evenodd" clip-rule="evenodd" d="M5.4697 558.435L3.31982 555.843L404.939 220.396L407.058 222.988L5.4697 558.435Z" fill="#68C82E"/>
<path fill-rule="evenodd" clip-rule="evenodd" d="M4.04684 556.696L1.89697 554.135L403.485 218.688L405.635 221.281L4.04684 556.696Z" fill="#6AC82E"/>
<path fill-rule="evenodd" clip-rule="evenodd" d="M2.5923 554.989L0.442383 552.428L402.062 216.981L404.212 219.542L2.5923 554.989Z" fill="#6BC82D"/>
<path fill-rule="evenodd" clip-rule="evenodd" d="M1.1694 553.281L-0.980469 550.721L400.639 215.274L402.757 217.835L1.1694 553.281Z" fill="#6DC82D"/>
<path fill-rule="evenodd" clip-rule="evenodd" d="M-0.25296 551.575L-2.40283 548.982L399.185 213.535L401.335 216.128L-0.25296 551.575Z" fill="#6EC92C"/>
<path fill-rule="evenodd" clip-rule="evenodd" d="M-1.7075 549.836L-3.85742 547.275L397.762 211.828L399.912 214.42L-1.7075 549.836Z" fill="#70C92C"/>
<path fill-rule="evenodd" clip-rule="evenodd" d="M-3.12986 548.128L-5.27979 545.567L396.34 210.121L398.49 212.682L-3.12986 548.128Z" fill="#71C92C"/>
<path fill-rule="evenodd" clip-rule="evenodd" d="M-4.55325 546.421L-6.70312 543.828L394.885 208.413L397.035 210.974L-4.55325 546.421Z" fill="#73C92B"/>
<path fill-rule="evenodd" clip-rule="evenodd" d="M-6.00731 544.714L-8.15723 542.121L393.462 206.674L395.612 209.267L-6.00731 544.714Z" fill="#74CA2B"/>
<path fill-rule="evenodd" clip-rule="evenodd" d="M-7.43016 542.975L-9.58008 540.414L392.039 204.968L394.189 207.56L-7.43016 542.975Z" fill="#76CA2A"/>
<path fill-rule="evenodd" clip-rule="evenodd" d="M-8.85257 541.268L-11.0024 538.707L390.585 203.26L392.735 205.821L-8.85257 541.268Z" fill="#77CA2A"/>
<path fill-rule="evenodd" clip-rule="evenodd" d="M-10.2749 539.561L-12.4248 537L389.163 201.553L391.313 204.114L-10.2749 539.561Z" fill="#79CA29"/>
<path fill-rule="evenodd" clip-rule="evenodd" d="M-11.73 537.853L-13.8799 535.261L387.74 199.814L389.889 202.406L-11.73 537.853Z" fill="#7ACB29"/>
<path fill-rule="evenodd" clip-rule="evenodd" d="M-13.1529 536.114L-15.3027 533.553L386.285 198.106L388.435 200.699L-13.1529 536.114Z" fill="#7CCB28"/>
<path fill-rule="evenodd" clip-rule="evenodd" d="M-14.5752 534.407L-16.7251 531.846L384.863 196.399L387.013 198.96L-14.5752 534.407Z" fill="#7DCB28"/>
<path fill-rule="evenodd" clip-rule="evenodd" d="M-16.0293 532.7L-18.1792 530.139L383.44 194.692L385.59 197.253L-16.0293 532.7Z" fill="#7FCC27"/>
<path fill-rule="evenodd" clip-rule="evenodd" d="M-17.4522 530.993L-19.6021 528.4L382.017 192.953L384.136 195.546L-17.4522 530.993Z" fill="#80CC27"/>
<path fill-rule="evenodd" clip-rule="evenodd" d="M-18.8745 529.254L-21.0244 526.693L380.563 191.246L382.713 193.838L-18.8745 529.254Z" fill="#82CC26"/>
<path fill-rule="evenodd" clip-rule="evenodd" d="M-20.3296 527.546L-22.4795 524.985L379.14 189.538L381.29 192.099L-20.3296 527.546Z" fill="#83CC26"/>
<path fill-rule="evenodd" clip-rule="evenodd" d="M-21.7525 525.839L-23.9023 523.278L377.717 187.831L379.835 190.392L-21.7525 525.839Z" fill="#85CD26"/>
<path fill-rule="evenodd" clip-rule="evenodd" d="M-23.1748 524.131L-25.3247 521.539L376.263 186.092L378.413 188.684L-23.1748 524.131Z" fill="#86CD25"/>
<path fill-rule="evenodd" clip-rule="evenodd" d="M-24.6288 522.392L-26.7471 519.832L374.841 184.385L376.991 186.977L-24.6288 522.392Z" fill="#88CD25"/>
<path fill-rule="evenodd" clip-rule="evenodd" d="M-26.0517 520.686L-28.2017 518.125L373.418 182.678L375.568 185.239L-26.0517 520.686Z" fill="#89CD24"/>
<path fill-rule="evenodd" clip-rule="evenodd" d="M-27.4751 518.979L-29.625 516.418L371.963 180.971L374.113 183.532L-27.4751 518.979Z" fill="#8BCE24"/>
<path fill-rule="evenodd" clip-rule="evenodd" d="M-28.9291 517.271L-31.0474 514.678L370.54 179.231L372.69 181.824L-28.9291 517.271Z" fill="#8CCE23"/>
<path fill-rule="evenodd" clip-rule="evenodd" d="M-30.3515 515.532L-32.5015 512.971L369.118 177.524L371.268 180.117L-30.3515 515.532Z" fill="#8ECE23"/>
<path fill-rule="evenodd" clip-rule="evenodd" d="M-31.7744 513.824L-33.9243 511.264L367.664 175.817L369.813 178.378L-31.7744 513.824Z" fill="#8FCE22"/>
<path fill-rule="evenodd" clip-rule="evenodd" d="M-33.1968 512.117L-35.3467 509.525L366.241 174.109L368.391 176.67L-33.1968 512.117Z" fill="#91CF22"/>
<path fill-rule="evenodd" clip-rule="evenodd" d="M-34.6518 510.41L-36.8018 507.818L364.818 172.371L366.968 174.964L-34.6518 510.41Z" fill="#92CF22"/>
<path fill-rule="evenodd" clip-rule="evenodd" d="M-36.0742 508.672L-38.2241 506.111L363.364 170.664L365.514 173.256L-36.0742 508.672Z" fill="#94CF21"/>
<path fill-rule="evenodd" clip-rule="evenodd" d="M-37.4971 506.964L-39.647 504.403L361.941 168.956L364.091 171.517L-37.4971 506.964Z" fill="#95D021"/>
<path fill-rule="evenodd" clip-rule="evenodd" d="M-38.9512 505.257L-41.1011 502.696L360.518 167.249L362.668 169.81L-38.9512 505.257Z" fill="#96D020"/>
<path fill-rule="evenodd" clip-rule="evenodd" d="M-40.3736 503.55L-42.5234 500.958L359.064 165.511L361.246 168.103L-40.3736 503.55Z" fill="#98D020"/>
<path fill-rule="evenodd" clip-rule="evenodd" d="M-41.7964 501.811L-43.9463 499.25L357.642 163.803L359.791 166.396L-41.7964 501.811Z" fill="#99D01F"/>
<path fill-rule="evenodd" clip-rule="evenodd" d="M-43.2514 500.104L-45.4014 497.543L356.218 162.096L358.368 164.657L-43.2514 500.104Z" fill="#9BD11F"/>
<path fill-rule="evenodd" clip-rule="evenodd" d="M-44.6739 498.396L-46.8237 495.835L354.796 160.388L356.946 162.949L-44.6739 498.396Z" fill="#9CD11E"/>
<path fill-rule="evenodd" clip-rule="evenodd" d="M-46.0967 496.689L-48.2466 494.097L353.341 158.681L355.491 161.242L-46.0967 496.689Z" fill="#9ED11E"/>
<path fill-rule="evenodd" clip-rule="evenodd" d="M-47.5508 494.95L-49.7007 492.389L351.919 156.942L354.069 159.535L-47.5508 494.95Z" fill="#9FD11E"/>
<path fill-rule="evenodd" clip-rule="evenodd" d="M-48.9731 493.243L-51.123 490.682L350.496 155.235L352.646 157.796L-48.9731 493.243Z" fill="#A0D21D"/>
<path fill-rule="evenodd" clip-rule="evenodd" d="M-50.3965 491.536L-52.5464 488.975L349.041 153.528L351.191 156.089L-50.3965 491.536Z" fill="#A2D21D"/>
<path fill-rule="evenodd" clip-rule="evenodd" d="M-51.851 489.828L-53.9692 487.236L347.619 151.789L349.768 154.382L-51.851 489.828Z" fill="#A3D21C"/>
<path fill-rule="evenodd" clip-rule="evenodd" d="M-53.2734 488.089L-55.4233 485.528L346.196 150.082L348.346 152.674L-53.2734 488.089Z" fill="#A5D21C"/>
<path fill-rule="evenodd" clip-rule="evenodd" d="M-54.6958 486.382L-56.8457 483.821L344.742 148.374L346.892 150.935L-54.6958 486.382Z" fill="#A6D31B"/>
<path fill-rule="evenodd" clip-rule="evenodd" d="M-56.1187 484.674L-58.2686 482.114L343.319 146.667L345.469 149.228L-56.1187 484.674Z" fill="#A7D31B"/>
<path fill-rule="evenodd" clip-rule="evenodd" d="M-57.5737 482.967L-59.7236 480.375L341.896 144.928L344.046 147.52L-57.5737 482.967Z" fill="#A9D31B"/>
<path fill-rule="evenodd" clip-rule="evenodd" d="M-58.9961 481.228L-61.146 478.667L340.442 143.22L342.592 145.813L-58.9961 481.228Z" fill="#AAD31A"/>
<path fill-rule="evenodd" clip-rule="evenodd" d="M-60.4185 479.522L-62.5684 476.961L339.02 141.514L341.169 144.075L-60.4185 479.522Z" fill="#ABD31A"/>
<path fill-rule="evenodd" clip-rule="evenodd" d="M-61.873 477.814L-64.0229 475.253L337.596 139.806L339.746 142.367L-61.873 477.814Z" fill="#ADD419"/>
<path fill-rule="evenodd" clip-rule="evenodd" d="M-63.2954 476.107L-65.4453 473.514L336.143 138.067L338.292 140.66L-63.2954 476.107Z" fill="#AED419"/>
<path fill-rule="evenodd" clip-rule="evenodd" d="M-64.7178 474.368L-66.8677 471.807L334.72 136.36L336.87 138.952L-64.7178 474.368Z" fill="#AFD419"/>
<path fill-rule="evenodd" clip-rule="evenodd" d="M-66.1728 472.66L-68.3228 470.099L333.297 134.653L335.447 137.213L-66.1728 472.66Z" fill="#B1D418"/>
<path fill-rule="evenodd" clip-rule="evenodd" d="M-67.5957 470.953L-69.7456 468.392L331.874 132.945L334.024 135.506L-67.5957 470.953Z" fill="#B2D518"/>
<path fill-rule="evenodd" clip-rule="evenodd" d="M-69.0181 469.246L-71.168 466.654L330.42 131.207L332.57 133.799L-69.0181 469.246Z" fill="#B3D517"/>
<path fill-rule="evenodd" clip-rule="evenodd" d="M-70.4721 467.507L-72.6221 464.946L328.997 129.5L331.147 132.092L-70.4721 467.507Z" fill="#B5D517"/>
<path fill-rule="evenodd" clip-rule="evenodd" d="M-71.895 465.8L-74.0449 463.239L327.575 127.792L329.724 130.353L-71.895 465.8Z" fill="#B6D517"/>
<path fill-rule="evenodd" clip-rule="evenodd" d="M-73.3184 464.093L-75.4683 461.532L326.12 126.085L328.269 128.646L-73.3184 464.093Z" fill="#B7D616"/>
<path fill-rule="evenodd" clip-rule="evenodd" d="M-74.7407 462.385L-76.8906 459.792L324.697 124.377L326.847 126.938L-74.7407 462.385Z" fill="#B9D616"/>
<path fill-rule="evenodd" clip-rule="evenodd" d="M-76.1948 460.647L-78.3447 458.086L323.275 122.639L325.425 125.231L-76.1948 460.647Z" fill="#BAD615"/>
<path fill-rule="evenodd" clip-rule="evenodd" d="M-77.6177 458.94L-79.7676 456.379L321.82 120.932L323.97 123.493L-77.6177 458.94Z" fill="#BBD615"/>
<path fill-rule="evenodd" clip-rule="evenodd" d="M-79.04 457.232L-81.1899 454.671L320.398 119.224L322.548 121.785L-79.04 457.232Z" fill="#BCD615"/>
<path fill-rule="evenodd" clip-rule="evenodd" d="M-80.4951 455.525L-82.645 452.932L318.974 117.485L321.124 120.078L-80.4951 455.525Z" fill="#BED714"/>
<path fill-rule="evenodd" clip-rule="evenodd" d="M-81.918 453.786L-84.0679 451.225L317.552 115.778L319.67 118.37L-81.918 453.786Z" fill="#BFD714"/>
<path fill-rule="evenodd" clip-rule="evenodd" d="M-83.3403 452.079L-85.4902 449.518L316.098 114.071L318.248 116.632L-83.3403 452.079Z" fill="#C0D714"/>
<path fill-rule="evenodd" clip-rule="evenodd" d="M-84.7944 450.372L-86.9443 447.811L314.675 112.364L316.825 114.925L-84.7944 450.372Z" fill="#C1D713"/>
<path fill-rule="evenodd" clip-rule="evenodd" d="M-86.2173 448.664L-88.3672 446.072L313.252 110.656L315.371 113.217L-86.2173 448.664Z" fill="#C2D813"/>
<path fill-rule="evenodd" clip-rule="evenodd" d="M-87.6397 446.925L-89.7896 444.364L311.798 108.917L313.948 111.51L-87.6397 446.925Z" fill="#C4D812"/>
<path fill-rule="evenodd" clip-rule="evenodd" d="M-89.0947 445.218L-91.2446 442.657L310.375 107.21L312.525 109.771L-89.0947 445.218Z" fill="#C5D812"/>
<path fill-rule="evenodd" clip-rule="evenodd" d="M-90.5171 443.51L-92.667 440.949L308.952 105.502L311.102 108.063L-90.5171 443.51Z" fill="#C6D812"/>
<path fill-rule="evenodd" clip-rule="evenodd" d="M-91.9399 441.803L-94.0898 439.21L307.498 103.763L309.648 106.356L-91.9399 441.803Z" fill="#C7D811"/>
<path fill-rule="evenodd" clip-rule="evenodd" d="M-93.394 440.065L-95.5439 437.504L306.076 102.057L308.225 104.649L-93.394 440.065Z" fill="#C8D911"/>
<path fill-rule="evenodd" clip-rule="evenodd" d="M-94.8164 438.358L-96.9663 435.797L304.653 100.35L306.803 102.911L-94.8164 438.358Z" fill="#C9D911"/>
<path fill-rule="evenodd" clip-rule="evenodd" d="M-96.2398 436.65L-98.3896 434.089L303.198 98.6421L305.348 101.203L-96.2398 436.65Z" fill="#CBD910"/>
<path fill-rule="evenodd" clip-rule="evenodd" d="M-97.6626 434.942L-99.8125 432.35L301.775 96.9031L303.925 99.4956L-97.6626 434.942Z" fill="#CCD910"/>
<path fill-rule="evenodd" clip-rule="evenodd" d="M-99.1167 433.204L-101.267 430.643L300.353 95.1958L302.503 97.7882L-99.1167 433.204Z" fill="#CDD910"/>
<path fill-rule="evenodd" clip-rule="evenodd" d="M-100.54 431.496L-102.689 428.935L298.898 93.4883L301.048 96.0492L-100.54 431.496Z" fill="#CEDA0F"/>
<path fill-rule="evenodd" clip-rule="evenodd" d="M-101.962 429.789L-104.112 427.229L297.476 91.7817L299.626 94.3426L-101.962 429.789Z" fill="#CFDA0F"/>
<path fill-rule="evenodd" clip-rule="evenodd" d="M-103.417 428.082L-105.567 425.49L296.053 90.0742L298.202 92.6351L-103.417 428.082Z" fill="#D0DA0F"/>
<path fill-rule="evenodd" clip-rule="evenodd" d="M-104.839 426.343L-106.989 423.782L294.599 88.3352L296.748 90.9277L-104.839 426.343Z" fill="#D1DA0E"/>
<path fill-rule="evenodd" clip-rule="evenodd" d="M-106.262 424.636L-108.412 422.075L293.176 86.6279L295.326 89.1888L-106.262 424.636Z" fill="#D2DA0E"/>
<path fill-rule="evenodd" clip-rule="evenodd" d="M-107.716 422.928L-109.866 420.367L291.753 84.9204L293.903 87.4813L-107.716 422.928Z" fill="#D3DB0E"/>
<path fill-rule="evenodd" clip-rule="evenodd" d="M-109.139 421.222L-111.289 418.629L290.331 83.1821L292.449 85.7746L-109.139 421.222Z" fill="#D4DB0D"/>
<path fill-rule="evenodd" clip-rule="evenodd" d="M-110.562 419.514L-112.711 416.922L288.876 81.4749L291.026 84.0674L-110.562 419.514Z" fill="#D5DB0D"/>
<path fill-rule="evenodd" clip-rule="evenodd" d="M-112.016 417.775L-114.166 415.214L287.453 79.7673L289.603 82.3282L-112.016 417.775Z" fill="#D6DB0D"/>
<path fill-rule="evenodd" clip-rule="evenodd" d="M-113.439 416.068L-115.589 413.507L286.031 78.0601L288.181 80.6211L-113.439 416.068Z" fill="#D7DB0C"/>
<path fill-rule="evenodd" clip-rule="evenodd" d="M-114.861 414.36L-117.011 411.768L284.577 76.3525L286.727 78.9134L-114.861 414.36Z" fill="#D8DB0C"/>
<path fill-rule="evenodd" clip-rule="evenodd" d="M-116.316 412.621L-118.466 410.06L283.154 74.6135L285.304 77.2061L-116.316 412.621Z" fill="#D9DC0C"/>
<path fill-rule="evenodd" clip-rule="evenodd" d="M-117.738 410.915L-119.888 408.354L281.731 72.907L283.881 75.4679L-117.738 410.915Z" fill="#DADC0C"/>
<path fill-rule="evenodd" clip-rule="evenodd" d="M-119.162 409.207L-121.312 406.646L280.276 71.1995L282.426 73.7604L-119.162 409.207Z" fill="#DBDC0B"/>
<path fill-rule="evenodd" clip-rule="evenodd" d="M-120.584 407.5L-122.734 404.908L278.854 69.4922L281.004 72.0531L-120.584 407.5Z" fill="#DCDC0B"/>
<path fill-rule="evenodd" clip-rule="evenodd" d="M-122.039 405.761L-124.188 403.2L277.431 67.7532L279.581 70.3457L-122.039 405.761Z" fill="#DDDC0B"/>
<path fill-rule="evenodd" clip-rule="evenodd" d="M-123.461 404.053L-125.611 401.493L275.977 66.0457L278.127 68.6066L-123.461 404.053Z" fill="#DEDC0A"/>
<path fill-rule="evenodd" clip-rule="evenodd" d="M-124.884 402.346L-127.034 399.785L274.554 64.3384L276.704 66.8993L-124.884 402.346Z" fill="#DFDD0A"/>
<path fill-rule="evenodd" clip-rule="evenodd" d="M-126.338 400.639L-128.488 398.047L273.131 62.6316L275.281 65.1925L-126.338 400.639Z" fill="#E0DD0A"/>
<path fill-rule="evenodd" clip-rule="evenodd" d="M-127.761 398.901L-129.911 396.34L271.677 60.8926L273.858 63.4851L-127.761 398.901Z" fill="#E1DD0A"/>
<path fill-rule="evenodd" clip-rule="evenodd" d="M-129.184 397.193L-131.333 394.632L270.254 59.1853L272.404 61.7462L-129.184 397.193Z" fill="#E2DD09"/>
<path fill-rule="evenodd" clip-rule="evenodd" d="M-130.638 395.486L-132.788 392.925L268.832 57.4778L270.982 60.0387L-130.638 395.486Z" fill="#E2DD09"/>
<path fill-rule="evenodd" clip-rule="evenodd" d="M-132.061 393.778L-134.21 391.186L267.409 55.7705L269.559 58.3314L-132.061 393.778Z" fill="#E3DD09"/>
<path fill-rule="evenodd" clip-rule="evenodd" d="M-133.483 392.039L-135.633 389.478L265.955 54.0315L268.105 56.6239L-133.483 392.039Z" fill="#E4DE09"/>
<path fill-rule="evenodd" clip-rule="evenodd" d="M-134.938 390.333L-137.088 387.772L264.532 52.3247L266.681 54.8856L-134.938 390.333Z" fill="#E5DE08"/>
<path fill-rule="evenodd" clip-rule="evenodd" d="M-136.361 388.625L-138.511 386.064L263.109 50.6174L265.259 53.1783L-136.361 388.625Z" fill="#E6DE08"/>
<path fill-rule="evenodd" clip-rule="evenodd" d="M-137.783 386.918L-139.933 384.325L261.655 48.8784L263.805 51.471L-137.783 386.918Z" fill="#E7DE08"/>
<path fill-rule="evenodd" clip-rule="evenodd" d="M-139.237 385.21L-141.355 382.618L260.232 47.1709L262.382 49.7634L-139.237 385.21Z" fill="#E7DE08"/>
<path fill-rule="evenodd" clip-rule="evenodd" d="M-140.66 383.472L-142.81 380.911L258.809 45.4636L260.959 48.0245L-140.66 383.472Z" fill="#E8DE07"/>
<path fill-rule="evenodd" clip-rule="evenodd" d="M-142.084 381.764L-144.233 379.203L257.354 43.7561L259.504 46.317L-142.084 381.764Z" fill="#E9DE07"/>
<path fill-rule="evenodd" clip-rule="evenodd" d="M-143.506 380.057L-145.656 377.465L255.932 42.0496L258.082 44.6105L-143.506 380.057Z" fill="#EADF07"/>
<path fill-rule="evenodd" clip-rule="evenodd" d="M-144.96 378.318L-147.11 375.758L254.51 40.3105L256.66 42.903L-144.96 378.318Z" fill="#EADF07"/>
<path fill-rule="evenodd" clip-rule="evenodd" d="M-146.383 376.611L-148.533 374.05L253.055 38.603L255.205 41.1639L-146.383 376.611Z" fill="#EBDF06"/>
<path fill-rule="evenodd" clip-rule="evenodd" d="M-147.805 374.904L-149.955 372.343L251.633 36.8958L253.783 39.4566L-147.805 374.904Z" fill="#ECDF06"/>
<path fill-rule="evenodd" clip-rule="evenodd" d="M-149.26 373.196L-151.41 370.604L250.209 35.1885L252.359 37.7494L-149.26 373.196Z" fill="#ECDF06"/>
<path fill-rule="evenodd" clip-rule="evenodd" d="M-150.683 371.49L-152.833 368.897L248.755 33.4502L250.905 36.0427L-150.683 371.49Z" fill="#EDDF06"/>
<path fill-rule="evenodd" clip-rule="evenodd" d="M-152.105 369.751L-154.255 367.19L247.332 31.7427L249.482 34.3036L-152.105 369.751Z" fill="#EEDF06"/>
<path fill-rule="evenodd" clip-rule="evenodd" d="M-153.56 368.043L-155.709 365.482L245.91 30.0354L248.06 32.5963L-153.56 368.043Z" fill="#EEDF05"/>
<path fill-rule="evenodd" clip-rule="evenodd" d="M-154.982 366.336L-157.132 363.743L244.488 28.3279L246.638 30.8888L-154.982 366.336Z" fill="#EFE005"/>
<path fill-rule="evenodd" clip-rule="evenodd" d="M-156.405 364.628L-158.555 362.036L243.033 26.5889L245.183 29.1814L-156.405 364.628Z" fill="#F0E005"/>
<path fill-rule="evenodd" clip-rule="evenodd" d="M-157.86 362.889L-160.01 360.329L241.61 24.8816L243.76 27.4425L-157.86 362.889Z" fill="#F0E005"/>
<path fill-rule="evenodd" clip-rule="evenodd" d="M-159.282 361.183L-161.432 358.622L240.187 23.1748L242.337 25.7357L-159.282 361.183Z" fill="#F1E005"/>
<path fill-rule="evenodd" clip-rule="evenodd" d="M-160.705 359.475L-162.855 356.883L238.733 21.4675L240.883 24.0284L-160.705 359.475Z" fill="#F2E004"/>
<path fill-rule="evenodd" clip-rule="evenodd" d="M-162.159 357.736L-164.277 355.175L237.31 19.7285L239.46 22.3211L-162.159 357.736Z" fill="#F2E004"/>
<path fill-rule="evenodd" clip-rule="evenodd" d="M-163.582 356.029L-165.731 353.468L235.888 18.021L238.038 20.5819L-163.582 356.029Z" fill="#F3E004"/>
<path fill-rule="evenodd" clip-rule="evenodd" d="M-165.005 354.322L-167.155 351.761L234.433 16.3137L236.583 18.8747L-165.005 354.322Z" fill="#F3E004"/>
<path fill-rule="evenodd" clip-rule="evenodd" d="M-166.428 352.614L-168.578 350.022L233.01 14.6062L235.16 17.1671L-166.428 352.614Z" fill="#F4E004"/>
<path fill-rule="evenodd" clip-rule="evenodd" d="M-167.882 350.907L-170.032 348.314L231.588 12.8672L233.738 15.4597L-167.882 350.907Z" fill="#F4E004"/>
<path fill-rule="evenodd" clip-rule="evenodd" d="M-169.304 349.168L-171.454 346.608L230.134 11.1606L232.284 13.7215L-169.304 349.168Z" fill="#F5E104"/>
<path fill-rule="evenodd" clip-rule="evenodd" d="M-170.727 347.461L-172.877 344.9L228.711 9.45312L230.861 12.014L-170.727 347.461Z" fill="#F5E103"/>
<path fill-rule="evenodd" clip-rule="evenodd" d="M-172.182 345.754L-174.332 343.161L227.287 7.74585L229.437 10.3067L-172.182 345.754Z" fill="#F6E103"/>
<path fill-rule="evenodd" clip-rule="evenodd" d="M-173.604 344.015L-175.754 341.454L225.833 6.00684L227.983 8.59938L-173.604 344.015Z" fill="#F6E103"/>
<path fill-rule="evenodd" clip-rule="evenodd" d="M-175.027 342.307L-177.177 339.746L224.411 4.29932L226.561 6.86021L-175.027 342.307Z" fill="#F7E103"/>
<path fill-rule="evenodd" clip-rule="evenodd" d="M-176.481 340.6L-178.631 338.039L222.988 2.59204L225.138 5.15294L-176.481 340.6Z" fill="#F7E103"/>
<path fill-rule="evenodd" clip-rule="evenodd" d="M-177.904 338.893L-180.054 336.3L221.566 0.885254L223.716 3.44615L-177.904 338.893Z" fill="#F7E103"/>
<path fill-rule="evenodd" clip-rule="evenodd" d="M-179.326 337.186L-181.476 334.593L220.112 -0.85376L222.262 1.73878L-179.326 337.186Z" fill="#F8E103"/>
<path fill-rule="evenodd" clip-rule="evenodd" d="M-180.781 335.447L-182.931 332.886L218.688 -2.56104L220.838 -4.17233e-05L-180.781 335.447Z" fill="#F8E102"/>
<path fill-rule="evenodd" clip-rule="evenodd" d="M-182.204 333.739L-184.354 331.178L217.265 -4.26855L219.415 -1.70766L-182.204 333.739Z" fill="#F9E102"/>
<path fill-rule="evenodd" clip-rule="evenodd" d="M-183.626 332.032L-185.776 329.439L215.811 -5.97583L217.961 -3.41493L-183.626 332.032Z" fill="#F9E102"/>
<path fill-rule="evenodd" clip-rule="evenodd" d="M-185.049 330.325L-187.199 327.733L214.389 -7.71411L216.539 -5.12166L-185.049 330.325Z" fill="#F9E102"/>
<path fill-rule="evenodd" clip-rule="evenodd" d="M-186.503 328.586L-188.653 326.025L212.966 -9.42163L215.116 -6.86073L-186.503 328.586Z" fill="#FAE102"/>
<path fill-rule="evenodd" clip-rule="evenodd" d="M-187.927 326.879L-190.077 324.318L211.511 -11.1289L213.661 -8.56801L-187.927 326.879Z" fill="#FAE102"/>
<path fill-rule="evenodd" clip-rule="evenodd" d="M-189.349 325.172L-191.499 322.579L210.089 -12.8364L212.239 -10.2754L-189.349 325.172Z" fill="#FAE202"/>
<path fill-rule="evenodd" clip-rule="evenodd" d="M-190.803 323.464L-192.953 320.871L208.667 -14.5754L210.817 -11.9829L-190.803 323.464Z" fill="#FBE202"/>
<path fill-rule="evenodd" clip-rule="evenodd" d="M-192.226 321.725L-194.376 319.164L207.212 -16.2827L209.362 -13.7218L-192.226 321.725Z" fill="#FBE202"/>
<path fill-rule="evenodd" clip-rule="evenodd" d="M-193.649 320.018L-195.799 317.457L205.789 -17.9895L207.938 -15.4286L-193.649 320.018Z" fill="#FBE202"/>
<path fill-rule="evenodd" clip-rule="evenodd" d="M-195.104 318.311L-197.253 315.719L204.366 -19.6968L206.516 -17.1359L-195.104 318.311Z" fill="#FBE202"/>
<path fill-rule="evenodd" clip-rule="evenodd" d="M-196.525 316.604L-198.675 314.011L202.944 -21.4358L205.062 -18.8433L-196.525 316.604Z" fill="#FBE201"/>
<path fill-rule="evenodd" clip-rule="evenodd" d="M-197.949 314.865L-200.099 312.304L201.489 -23.1433L203.639 -20.5824L-197.949 314.865Z" fill="#FCE201"/>
<path fill-rule="evenodd" clip-rule="evenodd" d="M-199.403 313.157L-201.553 310.596L200.067 -24.8506L202.217 -22.2897L-199.403 313.157Z" fill="#FCE201"/>
<path fill-rule="evenodd" clip-rule="evenodd" d="M-200.826 311.45L-202.976 308.857L198.643 -26.5581L200.793 -23.9972L-200.826 311.45Z" fill="#FCE201"/>
<path fill-rule="evenodd" clip-rule="evenodd" d="M-202.248 309.711L-204.398 307.151L197.19 -28.2964L199.34 -25.7038L-202.248 309.711Z" fill="#FCE201"/>
<path fill-rule="evenodd" clip-rule="evenodd" d="M-203.702 308.004L-205.852 305.443L195.767 -30.0037L197.917 -27.4428L-203.702 308.004Z" fill="#FCE201"/>
<path fill-rule="evenodd" clip-rule="evenodd" d="M-205.125 306.297L-207.275 303.736L194.344 -31.7109L196.494 -29.15L-205.125 306.297Z" fill="#FDE201"/>
<path fill-rule="evenodd" clip-rule="evenodd" d="M-206.549 304.589L-208.699 301.997L192.889 -33.4185L195.039 -30.8576L-206.549 304.589Z" fill="#FDE201"/>
<path fill-rule="evenodd" clip-rule="evenodd" d="M-207.972 302.882L-210.153 300.29L191.466 -35.1575L193.616 -32.5649L-207.972 302.882Z" fill="#FDE201"/>
<path fill-rule="evenodd" clip-rule="evenodd" d="M-209.425 301.143L-211.575 298.582L190.045 -36.865L192.195 -34.3041L-209.425 301.143Z" fill="#FDE201"/>
<path fill-rule="evenodd" clip-rule="evenodd" d="M-210.848 299.436L-212.998 296.875L188.59 -38.5715L190.74 -36.0106L-210.848 299.436Z" fill="#FDE201"/>
<path fill-rule="evenodd" clip-rule="evenodd" d="M-212.27 297.729L-214.42 295.137L187.168 -40.2788L189.318 -37.7179L-212.27 297.729Z" fill="#FDE201"/>
<path fill-rule="evenodd" clip-rule="evenodd" d="M-213.724 296.022L-215.874 293.429L185.745 -42.0178L187.895 -39.4253L-213.724 296.022Z" fill="#FDE201"/>
<path fill-rule="evenodd" clip-rule="evenodd" d="M-215.147 294.283L-217.297 291.722L184.29 -43.7253L186.44 -41.1328L-215.147 294.283Z" fill="#FDE201"/>
<path fill-rule="evenodd" clip-rule="evenodd" d="M-216.571 292.575L-244.298 259.41L157.322 -76.0369L185.017 -42.8716L-216.571 292.575Z" fill="#FDE201"/>
</g>
<path d="M260.643 145.055V298.709C242.433 290.584 214.294 285.399 182.773 285.399C151.062 285.399 122.766 290.647 104.555 298.804C88.9048 289.92 71.7372 282.743 53.9373 283.407C46.8237 283.628 39.9946 285.24 33.3552 287.928H33.292V145.055C33.292 82.2333 84.1623 31.363 146.952 31.363C178.315 31.363 206.801 44.1044 227.352 64.6864C247.902 85.2369 260.643 113.691 260.643 145.055Z" fill="white"/>
<path d="M260.644 325.899V325.962C257.324 326.848 254.099 327.733 250.811 328.555C254.099 327.733 257.324 326.784 260.644 325.899Z" fill="white"/>
<path d="M260.643 298.709V325.899C257.324 326.784 254.099 327.733 250.811 328.555C247.586 329.44 244.266 330.23 240.978 330.957C234.37 332.507 227.731 333.708 221.06 334.688C217.266 335.163 213.472 335.573 209.678 335.795C201.395 336.459 193.08 336.364 184.923 335.479C183.405 335.321 181.793 335.162 180.275 334.909C174.047 334.024 167.913 332.57 161.97 330.546C150.177 326.626 139.396 320.398 128.741 313.79C124.568 311.134 120.363 308.479 116.095 305.823C113.976 304.432 111.89 303.135 109.708 301.871C108.032 300.796 106.262 299.847 104.555 298.804C122.766 290.647 151.062 285.399 182.773 285.399C214.294 285.399 242.433 290.584 260.643 298.709Z" fill="#0A90C8"/>
<path d="M143.854 243.412C143.854 261.844 128.899 276.83 110.435 276.83C91.9715 276.83 77.0171 261.844 77.0171 243.412C77.0171 224.948 91.9715 209.994 110.435 209.994C128.899 209.994 143.854 224.948 143.854 243.412Z" fill="#00B54E"/>
<path fill-rule="evenodd" clip-rule="evenodd" d="M214.642 223.778C214.642 237.12 203.798 247.965 190.456 247.965C177.114 247.965 166.301 237.12 166.301 223.778C166.301 210.436 177.114 199.592 190.456 199.592C203.798 199.592 214.642 210.436 214.642 223.778Z" fill="#0A90C8"/>
<path d="M167.091 165.479C167.091 174.9 159.44 182.551 150.018 182.551C140.597 182.551 132.946 174.9 132.946 165.479C132.946 156.057 140.597 148.406 150.018 148.406C159.44 148.406 167.091 156.057 167.091 165.479Z" fill="#0A90C8"/>
<path d="M586.195 225.264C580.124 232.03 571.43 235.508 560.143 235.508H445.25V160.768H560.143C571.272 160.768 579.966 164.245 586.037 171.106C591.98 177.777 595.047 186.882 595.047 198.169C595.047 209.456 592.075 218.562 586.195 225.264ZM445.25 54.1896H552.966C562.166 54.1896 569.754 57.0034 575.382 62.5678C581.104 68.1322 584.013 75.8783 584.013 85.4579C584.013 95.1325 581.104 102.815 575.382 108.285C569.754 113.754 562.166 116.505 552.966 116.505H445.25V54.1896ZM624.956 138.921L619.55 136.107L624.324 132.218C640.922 118.75 648.984 103.036 648.984 84.2565C648.984 67.247 644.147 52.8301 634.63 41.4483C624.956 29.8452 613.037 21.625 599.347 17.0406C585.309 12.3614 569.406 9.927 552.239 9.927H394.727C390.775 9.927 387.361 11.3814 384.547 14.1952C381.638 17.0406 380.279 20.3287 380.279 24.3756V265.575C380.279 269.527 381.638 272.847 384.547 275.566C387.361 278.411 390.681 279.77 394.727 279.77H561.344C589.166 279.77 612.879 272.688 631.911 258.651C650.849 244.708 660.05 225.58 660.05 200.035C660.113 171.58 648.668 151.567 624.956 138.921Z" fill="#00B54E"/>
<path d="M896.601 216.982C882.817 233.264 860.496 241.547 830.271 241.547C800.014 241.547 777.693 233.264 763.845 216.982C750.124 200.826 743.2 176.671 743.2 145.055C743.2 113.534 750.124 89.3473 763.845 73.1283C770.769 64.9081 779.78 58.7114 790.909 54.6013C801.974 50.4912 815.19 48.3729 830.271 48.3729C860.496 48.3729 882.817 56.6879 896.601 73.1283C910.228 89.3473 917.183 113.534 917.183 145.055C917.183 176.671 910.228 200.762 896.601 216.982ZM943.931 37.8131C918.385 15.4922 880.161 4.11035 830.271 4.11035C780.444 4.11035 742.125 15.4922 716.579 37.8131C691.097 60.0709 678.197 96.1133 678.197 144.96C678.197 193.839 691.097 229.849 716.579 252.107C742.125 274.46 780.444 285.81 830.271 285.81C880.161 285.81 918.385 274.46 943.931 252.107C969.318 229.849 982.155 193.839 982.155 144.96C982.155 96.1133 969.318 60.0709 943.931 37.8131Z" fill="#00B44E"/>
<path d="M1272.42 14.132C1269.99 11.2865 1267.33 9.927 1263.95 9.927H1167.05C1096.04 10.0851 1055.22 33.7972 1042.48 82.486L993.315 268.484C993.062 269.622 992.904 270.665 992.746 271.614C992.809 273.068 993.378 274.68 994.675 276.293C996.445 278.727 998.785 279.77 1002.01 279.77H1041.59C1045.8 279.77 1049.75 278.411 1053.61 275.502C1057.4 272.657 1059.84 269.116 1060.88 264.784L1105.2 98.7682C1108.68 86.0269 1115.39 75.7201 1125.28 68.1323C1135.11 60.576 1146.91 56.7821 1160.03 56.7821H1211.24V265.575C1211.24 269.622 1212.6 272.847 1215.36 275.66C1218.17 278.474 1221.39 279.77 1225.41 279.77H1262.43C1266.38 279.77 1269.51 278.474 1272.17 275.724C1274.92 272.91 1276.22 269.622 1276.22 265.575V24.3756C1276.22 20.4868 1274.92 17.1988 1272.42 14.132Z" fill="#00B44E"/>
<path d="M1593.42 14.1952C1590.57 11.2865 1587.19 9.927 1583.02 9.927H1546.98C1543.02 9.927 1539.64 11.3814 1536.8 14.1952C1533.98 17.009 1532.53 20.4236 1532.53 24.3756V115.556H1391.14V24.3756C1391.14 20.3287 1389.84 17.009 1387.03 14.1952C1384.18 11.2865 1380.96 9.927 1377.01 9.927H1340.9C1336.7 9.927 1333.25 11.3814 1330.41 14.1952C1327.59 17.009 1326.14 20.3287 1326.14 24.3756V265.575C1326.14 269.527 1327.59 272.847 1330.5 275.566C1333.57 278.411 1336.95 279.77 1340.9 279.77H1377.01C1380.96 279.77 1384.28 278.474 1387.09 275.818C1389.84 273.163 1391.14 269.938 1391.14 265.986V162.38H1532.53V265.986C1532.53 269.938 1533.92 273.068 1536.73 275.755C1539.55 278.474 1542.93 279.77 1546.98 279.77H1583.02C1586.94 279.77 1590.35 278.411 1593.23 275.566C1596.14 272.847 1597.59 269.527 1597.59 265.575V24.3756C1597.59 20.3287 1596.23 17.009 1593.42 14.1952Z" fill="#00B44E"/>
<path d="M1850.05 165.921H1718.15L1736.14 98.7682C1739.52 86.0269 1746.28 75.7201 1756.21 68.1323C1766.04 60.576 1777.81 56.7821 1790.96 56.7821H1850.05V165.921ZM1911.32 14.0371C1908.92 11.2865 1906.01 9.927 1902.37 9.927H1797.98C1726.78 10.0851 1685.9 33.7972 1673.16 82.486L1624.56 266.966C1624.25 268.389 1623.99 269.78 1623.93 270.981C1623.93 272.752 1624.47 274.522 1625.76 276.135C1627.63 278.632 1630.28 279.77 1634.08 279.77H1672.46C1676.73 279.77 1680.59 278.411 1684.44 275.502C1688.33 272.657 1690.67 269.116 1691.72 264.784L1705.66 212.776H1850.05V265.575C1850.05 269.843 1851.34 273.163 1854 275.818C1856.66 278.474 1859.98 279.77 1864.24 279.77H1900.7C1904.71 279.77 1908.03 278.474 1910.85 275.724C1913.66 273.068 1915.05 269.938 1915.05 265.986V23.9646C1915.05 20.1706 1913.82 16.8509 1911.32 14.0371Z" fill="#00B44E"/>
<path d="M613.827 482.62L608.926 479.553L613.511 476.012C630.457 463.112 638.677 446.008 638.677 423.592C638.677 369.181 603.109 342.718 529.918 342.718H470.416C445.345 342.718 421.791 349.674 400.355 363.363C379.141 376.832 368.834 393.431 368.834 414.076C368.834 418.502 369.972 422.075 372.217 425.047C375.03 428.682 377.149 430.042 378.413 430.453C380.69 431.18 382.713 431.591 384.642 431.591H407.69C417.681 431.591 425.016 426.343 430.201 415.625C438.958 398.268 454.766 389.478 477.277 389.478H524.353C540.889 389.478 552.903 391.976 560.87 397.161C569.406 402.567 573.706 411.357 573.706 423.276C573.706 435.29 569.406 444.08 560.87 449.486C552.903 454.639 540.889 457.042 524.353 457.042H480.723C477.119 457.042 474.052 458.497 471.396 461.342C468.646 464.219 467.349 467.539 467.349 471.238V487.141C467.349 491.156 468.646 494.381 471.46 497.195C474.273 500.04 477.498 501.305 481.45 501.305H531.53C546.516 501.305 557.582 503.739 565.296 508.734C573.453 514.046 577.563 522.93 577.563 535.102C577.563 547.338 573.453 556.222 565.296 561.533C557.582 566.466 546.516 568.868 531.53 568.868H470.827C460.9 568.868 451.699 566.687 443.574 562.261C435.196 557.739 429.126 551.637 425.521 544.05C419.451 531.15 411.579 524.954 401.24 524.954H378.413C375.03 524.954 371.426 526.313 367.632 529.127C364.154 531.719 362.447 535.988 362.447 542.279C362.447 563.81 372.691 580.977 393.747 594.667C415.12 608.61 438.737 615.723 464.061 615.723H538.296C572.157 615.723 598.367 609.274 616.261 596.532C633.745 584.107 642.629 563.462 642.629 535.102C642.629 511.801 633.176 494.634 613.827 482.62Z" fill="#24439C"/>
<path d="M894.262 567.351H748.354L782.056 432.477C785.186 419.64 791.225 409.397 799.856 402.157C808.645 394.822 819.616 391.091 832.61 391.091H894.262V567.351ZM955.155 348.378C952.404 345.627 949.084 344.268 945.069 344.268H840.356C770.2 344.426 730.206 368.359 718.192 417.554L681.422 567.351H663.211C659.259 567.351 656.035 568.71 653.221 571.461C650.47 574.117 649.174 577.436 649.174 581.357V599.915C649.174 603.931 650.47 607.187 653.284 610.001C656.129 612.815 659.354 614.111 663.306 614.111H945.132C949.084 614.111 952.404 612.815 955.218 610.159C957.968 607.503 959.265 604.278 959.265 600.326V358.305C959.265 354.353 957.968 351.128 955.155 348.378Z" fill="#24439C"/>
<path d="M1211.62 551.29C1197.84 567.573 1175.52 575.888 1145.29 575.888C1115.04 575.888 1092.62 567.573 1078.84 551.29C1065.15 535.166 1058.22 510.98 1058.22 479.395C1058.22 447.874 1065.15 423.688 1078.77 407.469C1092.62 391.028 1115.04 382.713 1145.29 382.713C1175.52 382.713 1197.84 391.028 1211.62 407.469C1225.25 423.688 1232.11 447.874 1232.11 479.395C1232.11 510.98 1225.25 535.166 1211.62 551.29ZM1258.89 372.154C1233.31 349.833 1195.09 338.451 1145.29 338.451C1095.37 338.451 1057.15 349.833 1031.54 372.154C1006.06 394.411 993.156 430.454 993.156 479.301C993.156 528.148 1006.06 564.19 1031.54 586.447C1057.15 608.768 1095.37 620.15 1145.29 620.15C1195.09 620.15 1233.31 608.768 1258.89 586.447C1284.28 564.19 1297.08 528.148 1297.08 479.301C1297.08 430.454 1284.28 394.411 1258.89 372.154Z" fill="#24439C"/>
<path d="M1522.63 493.907C1510.78 501.653 1493.36 505.51 1470.94 505.51H1396.2V391.091H1470.94C1493.36 391.091 1510.78 394.98 1522.63 402.726C1534.96 410.693 1541.25 426.09 1541.25 448.253C1541.25 470.511 1534.96 485.845 1522.63 493.907ZM1493.04 344.268H1345.17C1341.31 344.268 1337.99 345.627 1335.34 348.473C1332.52 351.35 1331.23 354.669 1331.23 358.685V599.915C1331.23 603.867 1332.59 607.187 1335.43 610.001C1338.31 612.815 1341.63 614.111 1345.58 614.111H1382C1385.96 614.111 1389.28 612.815 1392.09 610.001C1394.84 607.187 1396.2 603.931 1396.2 599.915V552.365H1493.04C1530.92 552.365 1559.53 543.544 1578.24 526.376C1596.8 509.209 1606.23 483.031 1606.13 448.348C1606.13 378.286 1569.14 344.268 1493.04 344.268Z" fill="#24439C"/>
<path d="M1838.86 551.29C1825.07 567.573 1802.72 575.888 1772.49 575.888C1742.17 575.888 1719.85 567.573 1706.07 551.29C1692.35 535.166 1685.42 510.98 1685.42 479.395C1685.42 447.874 1692.35 423.688 1706.07 407.469C1712.99 399.249 1722.03 393.052 1733.07 388.942C1744.2 384.832 1757.35 382.713 1772.49 382.713C1802.72 382.713 1825.07 391.028 1838.86 407.469C1852.48 423.688 1859.31 447.874 1859.31 479.395C1859.31 510.98 1852.48 535.166 1838.86 551.29ZM1886.09 372.154C1860.54 349.833 1822.32 338.451 1772.49 338.451C1722.6 338.451 1684.38 349.833 1658.74 372.154C1633.35 394.411 1620.36 430.454 1620.36 479.301C1620.36 528.148 1633.35 564.19 1658.74 586.447C1671.54 597.671 1687.51 606.05 1706.54 611.677C1725.48 617.337 1747.52 620.15 1772.49 620.15C1822.32 620.15 1860.54 608.768 1886.09 586.447C1911.48 564.19 1924.31 528.148 1924.31 479.301C1924.31 430.454 1911.48 394.411 1886.09 372.154Z" fill="#24439C"/>
<path d="M2164.28 559.605C2158.31 566.466 2149.52 569.848 2138.29 569.848H2023.43V495.203H2138.29C2149.42 495.203 2158.15 498.586 2164.19 505.415C2170.16 512.118 2173.13 521.223 2173.13 532.51C2173.13 543.797 2170.16 552.902 2164.28 559.605ZM2023.43 388.53H2131.15C2140.32 388.53 2147.81 391.344 2153.53 396.908C2159.19 402.473 2162.1 410.219 2162.1 419.799C2162.1 429.473 2159.19 437.156 2153.53 442.625C2147.81 448.095 2140.32 450.94 2131.15 450.94H2023.43V388.53ZM2203.14 473.261L2197.73 470.447L2202.41 466.654C2219.01 453.09 2227.07 437.377 2227.07 418.597C2227.07 401.588 2222.33 387.171 2212.72 375.789C2203.04 364.186 2191.19 355.966 2177.4 351.35C2163.4 346.67 2147.59 344.268 2130.32 344.268H1972.78C1968.83 344.268 1965.54 345.722 1962.73 348.536C1959.82 351.444 1958.43 354.733 1958.43 358.685V599.915C1958.43 603.867 1959.82 607.187 1962.63 610.001C1965.54 612.815 1968.83 614.111 1972.78 614.111H2139.43C2167.25 614.111 2191.03 606.997 2210.06 592.991C2228.94 579.049 2238.1 559.921 2238.1 534.375C2238.26 505.921 2226.82 485.908 2203.14 473.261Z" fill="#24439C"/>
<path d="M2436.97 567.351H2337.22V485.434H2436.97C2453.66 485.434 2473.55 492.515 2473.55 526.376C2473.55 560.237 2453.66 567.351 2436.97 567.351ZM2510.16 462.038C2490.97 446.577 2466.4 438.673 2436.97 438.673H2337.22V358.621C2337.22 354.669 2335.86 351.35 2333.05 348.536C2330.3 345.722 2327.01 344.268 2323.06 344.268H2286.6C2282.4 344.268 2279.02 345.627 2276.3 348.378C2273.55 351.033 2272.25 354.416 2272.25 358.685V599.599C2272.25 603.615 2273.55 606.934 2276.3 609.906C2278.95 612.72 2282.02 614.111 2285.62 614.111H2436.97C2466.31 614.111 2490.91 606.27 2510.1 590.81C2528.94 575.571 2538.55 553.882 2538.55 526.471C2538.55 499.06 2529.04 477.371 2510.16 462.038Z" fill="#24439C"/>
<path d="M2755.6 467.381H2655.56C2631.95 467.381 2619.43 454.165 2619.43 429.252C2619.43 404.243 2631.95 391.091 2655.56 391.091H2755.6V467.381ZM2816.65 348.283C2813.99 345.627 2810.93 344.268 2807.19 344.268H2655.47C2626.38 344.268 2601.94 351.919 2582.85 366.936C2563.72 381.827 2554.46 402.568 2554.46 430.042C2554.3 466.495 2571.46 491.567 2606.78 506.711L2611.05 508.577L2555.02 601.781C2553.73 603.867 2553.1 605.891 2553.1 607.725C2553.1 608.768 2553.25 609.685 2553.73 610.633V610.791C2554.71 613.226 2556.16 614.111 2558.72 614.111H2607.6C2618.32 614.111 2626.29 608.863 2632.17 598.145L2680 514.141H2755.6V599.663C2755.6 603.709 2756.99 607.092 2759.8 609.906C2762.55 612.72 2765.84 614.111 2769.79 614.111H2806.4C2810.42 614.111 2813.74 612.815 2816.49 610.159C2819.3 607.503 2820.6 604.278 2820.6 600.326V358.305C2820.6 354.353 2819.3 351.033 2816.65 348.283Z" fill="#24439C"/>
<path fill-rule="evenodd" clip-rule="evenodd" d="M141.324 589.894C155.203 585.151 168.545 580.251 180.97 573.769C193.395 567.383 204.809 559.542 214.831 550.152C224.885 540.794 233.516 529.918 240.883 517.999C248.313 506.111 254.478 493.243 260.611 479.933C259.347 494.539 255.458 508.956 249.23 522.488C243.001 536.051 234.18 548.666 223.083 558.973C212.017 569.311 198.802 577.31 184.764 582.432C170.727 587.586 155.962 590.115 141.324 589.894Z" fill="white"/>
<path fill-rule="evenodd" clip-rule="evenodd" d="M214.831 550.152C204.809 559.542 193.395 567.383 180.97 573.769C168.545 580.251 155.203 585.151 141.324 589.894C155.962 590.115 170.727 587.586 184.764 582.432C198.802 577.31 212.017 569.311 223.083 558.973C234.18 548.666 243.001 536.051 249.23 522.488C255.458 508.956 259.347 494.539 260.611 479.933C254.478 493.243 248.313 506.111 240.883 517.999C233.516 529.918 224.885 540.794 214.831 550.152Z" fill="#FEFEFE"/>
<path fill-rule="evenodd" clip-rule="evenodd" d="M166.301 223.778C166.301 237.12 177.114 247.965 190.456 247.965C203.798 247.965 214.642 237.12 214.642 223.778C214.642 210.436 203.798 199.592 190.456 199.592C177.114 199.592 166.301 210.436 166.301 223.778Z" fill="#0A90C8"/>
</svg>
